<?xml version="1.0" encoding="utf-8"?>
<!-- Generator: Adobe Illustrator 24.2.3, SVG Export Plug-In . SVG Version: 6.00 Build 0)  -->
<svg version="1.1" id="Layer_1" xmlns="http://www.w3.org/2000/svg" xmlns:xlink="http://www.w3.org/1999/xlink" x="0px" y="0px"
	 viewBox="0 0 512.2 512.2" style="enable-background:new 0 0 512.2 512.2;" xml:space="preserve">
<style type="text/css">
	.st0{fill:#FDE231;}
</style>
<path class="st0" d="M507.4,415.2l-80-128c-7.6-12.1-22.4-17.8-36.1-13.8c-13.7,3.9-23.3,16.5-23.3,30.8v10.2l-44-35.2
	c-1.3-1-3-1.8-4-2.6v-36.4c0-12.9-7.5-23.9-18.5-29l-32.4-97.4c-13.1-39.3-49.6-65.6-91-65.6H96.2c-17.7,0-32.2,14.3-32.2,32v128
	H32.2c-17.7,0-32.2,14.3-32.2,32v96c0,9.9,4.8,18.7,11.9,24.6C4.6,371.5,0.2,385,0.2,400.1c0,35.9,24.3,64,55.3,64H265
	c31,0,55.3-28.1,55.3-64c0-15.1-4.5-28.6-11.7-39.4c2.5-2,4.7-4.3,6.5-7l49.2,39.4c1.3,1,2.9,1.9,3.9,2.7v36.3
	c0,17.7,14.6,32,32.2,32h80c11.6,0,22.4-6.3,28-16.5C513.9,437.5,513.6,425,507.4,415.2L507.4,415.2z M208.5,134l24.7,74.1h-56.9
	c0-26.5-22.2-48-48.2-48v-48h50.1C191.9,112.1,204.1,120.9,208.5,134L208.5,134z M64.2,432.1c-17.7,0-32-14.3-32-32
	c0-17.7,14.3-32,32-32c17.7,0,32,14.3,32,32C96.2,417.8,81.9,432.1,64.2,432.1z M160.2,432.1c-17.7,0-32-14.3-32-32
	c0-17.7,14.3-32,32-32c17.7,0,32,14.3,32,32C192.2,417.8,177.9,432.1,160.2,432.1z M256.2,432.1c-17.7,0-32-14.3-32-32
	c0-17.7,14.3-32,32-32c17.7,0,32,14.3,32,32C288.2,417.8,273.9,432.1,256.2,432.1z"/>
</svg>
