<?xml version="1.0" encoding="utf-8"?>
<!-- Generator: Adobe Illustrator 24.2.3, SVG Export Plug-In . SVG Version: 6.00 Build 0)  -->
<svg version="1.1" id="Capa_1" xmlns="http://www.w3.org/2000/svg" xmlns:xlink="http://www.w3.org/1999/xlink" x="0px" y="0px"
	 viewBox="0 0 503 503" style="enable-background:new 0 0 503 503;" xml:space="preserve">
<style type="text/css">
	.st0{fill:#FDE231;}
</style>
<g>
	<path class="st0" d="M32,443.5c0,13,10.5,23.5,23.5,23.5S79,456.5,79,443.5c0-8.4-4.5-16.2-11.7-20.3c-3.6-2.1-7.6-3.2-11.8-3.2
		C42.5,420,32,430.5,32,443.5z M64,443.5c0,4.7-3.8,8.5-8.5,8.5s-8.5-3.8-8.5-8.5s3.8-8.5,8.5-8.5c1.5,0,3,0.4,4.2,1.1
		C62.4,437.7,64,440.5,64,443.5z"/>
	<path class="st0" d="M119.5,467c13,0,23.5-10.5,23.5-23.5c0-8.4-4.5-16.2-11.7-20.3c-3.6-2.1-7.6-3.2-11.8-3.2
		c-13,0-23.5,10.5-23.5,23.5S106.5,467,119.5,467z M119.5,435c1.5,0,3,0.4,4.2,1.1c2.6,1.5,4.3,4.3,4.3,7.4c0,4.7-3.8,8.5-8.5,8.5
		s-8.5-3.8-8.5-8.5S114.8,435,119.5,435z"/>
	<path class="st0" d="M183.5,467c13,0,23.5-10.5,23.5-23.5c0-8.4-4.5-16.2-11.7-20.3c-3.6-2.1-7.6-3.2-11.8-3.2
		c-13,0-23.5,10.5-23.5,23.5S170.5,467,183.5,467z M183.5,435c1.5,0,3,0.4,4.2,1.1c2.6,1.5,4.3,4.3,4.3,7.4c0,4.7-3.8,8.5-8.5,8.5
		s-8.5-3.8-8.5-8.5S178.8,435,183.5,435z"/>
	<path class="st0" d="M247.5,467c13,0,23.5-10.5,23.5-23.5c0-8.4-4.5-16.2-11.7-20.3c-3.6-2.1-7.6-3.2-11.8-3.2
		c-13,0-23.5,10.5-23.5,23.5S234.5,467,247.5,467z M247.5,435c1.5,0,3,0.4,4.2,1.1c2.6,1.5,4.3,4.3,4.3,7.4c0,4.7-3.8,8.5-8.5,8.5
		s-8.5-3.8-8.5-8.5S242.8,435,247.5,435z"/>
	<path class="st0" d="M63.5,315h8c4.1,0,7.5-3.4,7.5-7.5s-3.4-7.5-7.5-7.5h-8c-4.1,0-7.5,3.4-7.5,7.5S59.4,315,63.5,315z"/>
	<path class="st0" d="M63.5,339h8c4.1,0,7.5-3.4,7.5-7.5s-3.4-7.5-7.5-7.5h-8c-4.1,0-7.5,3.4-7.5,7.5S59.4,339,63.5,339z"/>
	<path class="st0" d="M499.8,263.7l-127.5-241c-4.9-11-16-18.7-28.8-18.7c-10.7,0-20.2,5.4-25.9,13.6c0,0,0,0,0,0l-122,162.7
		c-1.7-0.2-3.4-0.3-5.1-0.3h-54.9c-21.8,0-39.5,17.7-39.5,39.5V268H47.5c-13,0-23.5,10.5-23.5,23.5v56c0,13,10.5,23.5,23.5,23.5h56
		h8.5v17H55.5C24.9,388,0,412.9,0,443.5S24.9,499,55.5,499h192c30.6,0,55.5-24.9,55.5-55.5S278.1,388,247.5,388H191v-17h64.5
		c4.1,0,7.5-3.4,7.5-7.5V339l8.5,0c0.1,0,0.2,0,0.3,0c0.2,0,0.3,0,0.5,0c0.1,0,0.2,0,0.2,0c0.2,0,0.3,0,0.5-0.1
		c0.1,0,0.3-0.1,0.4-0.1c0.1,0,0.2,0,0.3-0.1c0.1,0,0.2-0.1,0.2-0.1c0.2-0.1,0.3-0.1,0.4-0.2c0,0,0,0,0.1,0c0.4-0.2,0.8-0.4,1.2-0.7
		c0.1-0.1,0.2-0.1,0.3-0.2c0.1-0.1,0.2-0.1,0.3-0.2c0.1-0.1,0.2-0.2,0.3-0.3c0.1-0.1,0.2-0.1,0.2-0.2c0.1-0.1,0.1-0.1,0.2-0.2
		c0.1-0.1,0.2-0.2,0.3-0.3c0,0,0.1-0.1,0.1-0.1c0.1-0.1,0.2-0.3,0.3-0.5c0-0.1,0.1-0.1,0.1-0.2c0.1-0.1,0.2-0.3,0.2-0.4
		c0.4-0.8,0.7-1.6,0.8-2.5c0-0.3,0.1-0.7,0.1-1v-28.6c0-14.2-4.2-27.9-12-39.7l-11.9-17.8l82.4-138.3l121.7,180.3
		c2.8,4.9,7.4,8.6,12.8,10.5v12.4l-2.2-5.4c-0.7-1.8-2.2-3.3-4-4.1c-1.8-0.8-3.9-0.8-5.7-0.1l-102.5,41.2l-17.7-14.6
		c-3.2-2.6-7.9-2.2-10.6,1c-2.6,3.2-2.2,7.9,1,10.6l55.4,45.6c10.1,8.3,22.6,12.7,35.3,12.7c7,0,14-1.3,20.7-4l25.5-10.3
		c11-4.4,18.1-14.4,19.5-25.4c0.2-0.6,0.2-1.2,0.2-1.9v-57.7c9.3-3.1,16-11.9,16-22.3C503,271.2,501.8,267.2,499.8,263.7z M96,356
		H47.5c-4.7,0-8.5-3.8-8.5-8.5v-56c0-4.7,3.8-8.5,8.5-8.5H96V356z M461.6,368.9l-25.5,10.3c-13.8,5.5-29.4,3.1-40.9-6.3l-24.5-20.2
		l87.9-35.3l12.1,30.2C474.2,355.9,470.1,365.5,461.6,368.9z M343.5,19c6.2,0,11.6,3.4,14.4,8.4c0.1,0.3,0.2,0.6,0.4,0.9l0.5,0.9
		c0.8,1.9,1.2,4,1.2,6.3c0,3.1-0.9,6-2.4,8.5c0,0.1-0.1,0.1-0.1,0.2l-0.3,0.5c-3,4.4-8,7.2-13.6,7.2c-9.1,0-16.5-7.4-16.5-16.5
		S334.4,19,343.5,19z M247.5,403c22.3,0,40.5,18.2,40.5,40.5S269.8,484,247.5,484h-192C33.2,484,15,465.8,15,443.5
		S33.2,403,55.5,403H247.5z M127,388v-17h49v17H127z M248,356H111v-80.5c0,0,0,0,0,0s0,0,0,0v-56c0-10.9,7.1-20.1,17-23.3v107.7
		c0,8.9,5.3,17,13.4,20.7c21.6,9.6,44.4,14.4,68,14.4H248V356z M264,302.9V324h-54.6c-8.9,0-17.8-0.8-26.4-2.3V219.5
		c0-4.1-3.4-7.5-7.5-7.5s-7.5,3.4-7.5,7.5v98.8c-7-2-13.8-4.4-20.5-7.4c-2.7-1.2-4.5-3.9-4.5-6.9V195h47.4c8.2,0,15.8,4.1,20.4,10.9
		l43.8,65.6C260.7,280.8,264,291.7,264,302.9z M245.9,231.6l-22.6-34c-3.4-5-7.8-9.1-12.8-12.1L314.2,47.1
		c4.6,11.6,16,19.9,29.3,19.9c0.1,0,0.3,0,0.4,0L245.9,231.6z M460.2,262.1L346,92.8l24-40.3c0.2-0.3,0.4-0.6,0.6-1l106.2,200.6
		C469.9,253,464,256.7,460.2,262.1z M479.5,284c-4.7,0-8.5-3.8-8.5-8.5s3.8-8.5,8.5-8.5s8.5,3.8,8.5,8.5S484.2,284,479.5,284z"/>
</g>
</svg>
