<?xml version="1.0" encoding="utf-8"?>
<!-- Generator: Adobe Illustrator 24.2.3, SVG Export Plug-In . SVG Version: 6.00 Build 0)  -->
<svg version="1.1" id="Capa_1" xmlns="http://www.w3.org/2000/svg" xmlns:xlink="http://www.w3.org/1999/xlink" x="0px" y="0px"
	 viewBox="0 0 479.1 479.1" style="enable-background:new 0 0 479.1 479.1;" xml:space="preserve">
<style type="text/css">
	.st0{fill:#FDE231;}
</style>
<path id="XMLID_332_" class="st0" d="M470.5,206c4.8,0,8.6-3.9,8.6-8.6v-30.6c0-4.8-3.9-8.6-8.6-8.6h-8.6v-36.9
	c0-1.9-0.7-3.8-1.9-5.4l-24.6-31c-1.6-2.1-4.1-3.3-6.8-3.3c-2.6,0-5.1,1.2-6.8,3.3l-24.6,31c-1.2,1.5-1.9,3.4-1.9,5.4v36.9h-28
	v-17.2c0-4-2.7-7.5-6.6-8.4l-49.3-11.8c-2.6-0.6-5.3,0-7.4,1.6c-2.1,1.6-3.3,4.1-3.3,6.8v29h-28v-36.9c0-1.9-0.7-3.8-1.9-5.4
	l-24.6-31c-1.6-2.1-4.1-3.3-6.8-3.3c-2.6,0-5.1,1.2-6.8,3.3l-24.6,31c-1.2,1.5-1.9,3.4-1.9,5.4v36.9h-28v-36.9
	c0-1.9-0.7-3.8-1.9-5.4l-24.6-31c-1.6-2.1-4.1-3.3-6.8-3.3c-2.6,0-5.1,1.2-6.7,3.3l-24.6,31c-1.2,1.5-1.9,3.4-1.9,5.4v36.9h-28
	v-35.7c0-2.7-1.2-5.2-3.3-6.8L57.3,97.5c-3.7-2.9-9.1-2.3-12.1,1.4l-26.1,32.8c-1.2,1.5-1.9,3.4-1.9,5.4v21H8.6
	c-4.8,0-8.6,3.9-8.6,8.6v30.6c0,4.8,3.8,8.6,8.6,8.6h8.6v90.5H8.6c-4.8,0-8.6,3.9-8.6,8.6v30.6c0,4.8,3.8,8.6,8.6,8.6h8.6V389
	c0,4.8,3.9,8.6,8.6,8.6h49.3c4.8,0,8.6-3.9,8.6-8.6v-44.6h28v42.3c0,2.7,1.2,5.1,3.3,6.8c2.1,1.6,4.8,2.2,7.4,1.6l49.3-11.8
	c3.9-0.9,6.6-4.4,6.6-8.4v-30.5h28V389c0,4.8,3.9,8.6,8.6,8.6h49.3c4.8,0,8.6-3.9,8.6-8.6v-44.6h28V389c0,4.8,3.9,8.6,8.6,8.6h49.3
	c4.8,0,8.6-3.9,8.6-8.6v-44.6h28V389c0,4.8,3.9,8.6,8.6,8.6h49.3c4.8,0,8.6-3.9,8.6-8.6v-44.6h8.6c4.8,0,8.6-3.9,8.6-8.6v-30.6
	c0-4.8-3.9-8.6-8.6-8.6h-8.6V206L470.5,206L470.5,206z M83.8,296.5V206h28v90.5H83.8z M178.3,296.5V206h28v90.5H178.3z M272.8,296.5
	V206h28v90.5H272.8z M395.3,296.5h-28V206h28V296.5z"/>
</svg>
